<svg width="32" height="32" viewBox="0 0 32 32" fill="none" xmlns="http://www.w3.org/2000/svg">
  <!-- Bot head -->
  <rect x="6" y="8" width="20" height="16" rx="4" fill="#007AFF"/>
  
  <!-- Bot eyes -->
  <circle cx="12" cy="14" r="2" fill="white"/>
  <circle cx="20" cy="14" r="2" fill="white"/>
  <circle cx="12" cy="14" r="1" fill="#007AFF"/>
  <circle cx="20" cy="14" r="1" fill="#007AFF"/>
  
  <!-- Bot mouth -->
  <rect x="14" y="18" width="4" height="1" rx="0.5" fill="white"/>
  
  <!-- Bot antennas -->
  <circle cx="12" cy="6" r="1" fill="#007AFF"/>
  <circle cx="20" cy="6" r="1" fill="#007AFF"/>
  <line x1="12" y1="8" x2="12" y2="7" stroke="#007AFF" stroke-width="1.5"/>
  <line x1="20" y1="8" x2="20" y2="7" stroke="#007AFF" stroke-width="1.5"/>
  
  <!-- Bot body connector -->
  <rect x="15" y="24" width="2" height="4" fill="#007AFF"/>
  
  <!-- AI sparkles -->
  <path d="M8 4 L9 2 L10 4 L8 5 Z" fill="#34C759"/>
  <path d="M24 26 L25 24 L26 26 L24 27 Z" fill="#34C759"/>
  <circle cx="4" cy="16" r="0.5" fill="#FF9500"/>
  <circle cx="28" cy="12" r="0.5" fill="#FF9500"/>
</svg>
