<svg width="1200" height="630" viewBox="0 0 1200 630" fill="none" xmlns="http://www.w3.org/2000/svg">
  <!-- Background -->
  <rect width="1200" height="630" fill="#F7F7F7"/>
  
  <!-- Main Bot Icon -->
  <rect x="500" y="200" width="200" height="160" rx="40" fill="#007AFF"/>
  
  <!-- Bot eyes -->
  <circle cx="550" cy="250" r="20" fill="white"/>
  <circle cx="650" cy="250" r="20" fill="white"/>
  <circle cx="550" cy="250" r="10" fill="#007AFF"/>
  <circle cx="650" cy="250" r="10" fill="#007AFF"/>
  
  <!-- Bot mouth -->
  <rect x="575" y="300" width="50" height="8" rx="4" fill="white"/>
  
  <!-- Bot antennas -->
  <circle cx="550" cy="180" r="8" fill="#007AFF"/>
  <circle cx="650" cy="180" r="8" fill="#007AFF"/>
  <line x1="550" y1="200" x2="550" y2="188" stroke="#007AFF" stroke-width="8"/>
  <line x1="650" y1="200" x2="650" y2="188" stroke="#007AFF" stroke-width="8"/>
  
  <!-- Title -->
  <text x="600" y="450" font-family="-apple-system, BlinkMacSystemFont, 'Segoe UI', sans-serif" font-size="72" font-weight="600" text-anchor="middle" fill="#1D1D1F">TL;DR</text>
  
  <!-- Subtitle -->
  <text x="600" y="500" font-family="-apple-system, BlinkMacSystemFont, 'Segoe UI', sans-serif" font-size="32" text-anchor="middle" fill="#606060">AI-Powered Text Analysis</text>
  
  <!-- AI Sparkles -->
  <path d="M350 150 L365 120 L380 150 L350 165 Z" fill="#34C759"/>
  <path d="M820 480 L835 450 L850 480 L820 495 Z" fill="#34C759"/>
  <path d="M250 300 L265 270 L280 300 L250 315 Z" fill="#FF9500"/>
  <path d="M920 250 L935 220 L950 250 L920 265 Z" fill="#FF9500"/>
  
  <!-- Decorative circles -->
  <circle cx="200" cy="200" r="4" fill="#007AFF" opacity="0.3"/>
  <circle cx="1000" cy="400" r="4" fill="#007AFF" opacity="0.3"/>
  <circle cx="150" cy="450" r="6" fill="#34C759" opacity="0.4"/>
  <circle cx="1050" cy="180" r="6" fill="#34C759" opacity="0.4"/>
</svg>
